<svg width="24" height="24" viewBox="0 0 24 24" xmlns="http://www.w3.org/2000/svg">
  <path d="M4.895 15.65C4.8 15.555 4.675 15.495 4.54 15.5C3.97 15.52 3.5 15.065 3.5 14.5V6.5C3.5 5.95 3.95 5.5 4.5 5.5H16.5C17.05 5.5 17.5 5.95 17.5 6.5V11C17.5 11.275 17.725 11.5 18 11.5C18.275 11.5 18.5 11.275 18.5 11V6.5C18.5 5.395 17.605 4.5 16.5 4.5H4.5C3.395 4.5 2.5 5.395 2.5 6.5V14.5C2.5 15.53 3.285 16.38 4.32 16.49" />
  <path d="M4 16.5H9C9.275 16.5 9.5 16.275 9.5 16C9.5 15.725 9.275 15.5 9 15.5H4C3.725 15.5 3.5 15.725 3.5 16" />
  <path d="M15.345 12.65L13.575 13.765C13.46 13.825 13.36 13.91 13.28 14.005H11.67C11.02 14.005 10.495 14.525 10.495 15.16V16.85C10.495 17.485 11.02 18.005 11.67 18.005H13.28C13.36 18.1 13.455 18.18 13.54 18.225L15.37 19.375C15.535 19.465 15.715 19.505 15.89 19.505C16.17 19.505 16.455 19.395 16.675 19.175C16.89 18.965 16.99 18.655 16.99 18.355V13.665C16.99 13.33 16.87 12.995 16.615 12.775C16.255 12.47 15.775 12.415 15.335 12.655L15.345 12.65ZM13 17H11.675C11.58 17 11.5 16.93 11.5 16.845V15.155C11.5 15.07 11.58 15 11.675 15H13V17ZM16 18.555C16 18.555 16 18.605 15.955 18.635C15.935 18.645 15.895 18.665 15.875 18.655L14.035 17.5L14 17.475L13.955 14.795L13.97 14.745L15.84 13.555C15.84 13.555 15.88 13.54 15.895 13.54C15.92 13.54 15.94 13.55 15.95 13.555C15.995 13.58 15.995 13.62 15.995 13.635V18.555H16Z" />
  <path d="M20.215 12.595C20.01 12.41 19.695 12.43 19.51 12.635C19.325 12.84 19.345 13.155 19.55 13.34C20.335 14.04 20.79 15.045 20.79 16.09C20.79 17.135 20.34 18.145 19.55 18.845C19.345 19.03 19.325 19.345 19.51 19.55C19.61 19.66 19.745 19.72 19.885 19.72C20.005 19.72 20.12 19.68 20.215 19.595C21.215 18.705 21.79 17.43 21.79 16.09C21.79 14.75 21.215 13.48 20.215 12.59V12.595Z" />
  <path d="M18.71 13.575C18.495 13.4 18.18 13.43 18.005 13.64C17.83 13.85 17.86 14.17 18.07 14.345C18.59 14.78 18.89 15.415 18.89 16.095C18.89 16.775 18.59 17.415 18.065 17.85C17.855 18.025 17.825 18.34 18 18.555C18.1 18.675 18.24 18.735 18.385 18.735C18.495 18.735 18.61 18.695 18.705 18.62C19.46 17.995 19.89 17.075 19.89 16.095C19.89 15.115 19.46 14.2 18.71 13.575Z" />
  <path d="M14.39 7.5H6.055C5.75 7.5 5.5 7.725 5.5 8C5.5 8.275 5.75 8.5 6.055 8.5H14.39C14.695 8.5 14.945 8.275 14.945 8C14.945 7.725 14.695 7.5 14.39 7.5Z" />
  <path d="M14.39 9.5H6.055C5.75 9.5 5.5 9.725 5.5 10C5.5 10.275 5.75 10.5 6.055 10.5H14.39C14.695 10.5 14.945 10.275 14.945 10C14.945 9.725 14.695 9.5 14.39 9.5Z" />
  <path d="M12.5 11.5H6C5.725 11.5 5.5 11.725 5.5 12C5.5 12.275 5.725 12.5 6 12.5H12.5C12.775 12.5 13 12.275 13 12C13 11.725 12.775 11.5 12.5 11.5Z" />
</svg>